 <svg version="1.0" xmlns="http://www.w3.org/2000/svg" width="700.000000pt" height="682.000000pt" viewBox="0 0 700.000000 682.000000" preserveAspectRatio="xMidYMid meet">
<metadata>
Created by potrace 1.12, written by Peter Selinger 2001-2015
</metadata>
<g transform="translate(0.000000,682.000000) scale(0.100000,-0.100000)" fill="#fff" stroke="none">
<path d="M3205 6660 c-38 -4 -89 -13 -113 -19 -24 -7 -82 -16 -130 -22 -112
-12 -373 -81 -497 -131 -27 -11 -70 -26 -95 -33 -25 -7 -58 -20 -75 -28 -16
-9 -66 -32 -110 -52 -125 -57 -182 -86 -267 -137 -44 -27 -82 -48 -84 -48 -5
0 -154 -101 -194 -132 -14 -10 -50 -37 -80 -59 -30 -21 -73 -56 -95 -77 -22
-21 -59 -50 -83 -66 -72 -49 -429 -449 -487 -547 -11 -18 -27 -43 -35 -55 -21
-30 -47 -69 -99 -149 -50 -78 -221 -412 -221 -432 0 -7 -11 -36 -24 -65 -49
-108 -116 -314 -139 -428 -9 -41 -20 -88 -26 -103 -6 -16 -16 -83 -21 -150 -6
-67 -19 -165 -28 -217 -24 -133 -24 -493 0 -600 9 -41 19 -118 22 -171 4 -53
16 -132 27 -175 12 -44 27 -113 35 -154 7 -41 22 -100 33 -130 11 -30 20 -63
21 -72 0 -10 11 -42 25 -72 14 -30 25 -60 25 -67 0 -30 127 -304 209 -451 45
-82 124 -211 153 -253 16 -22 40 -58 55 -80 75 -115 345 -409 503 -548 95 -82
107 -92 195 -157 44 -32 92 -68 106 -79 15 -11 37 -25 50 -31 13 -6 67 -37
119 -70 52 -33 111 -67 130 -75 19 -9 42 -19 50 -24 8 -4 24 -13 35 -19 20
-11 147 -70 220 -102 84 -38 152 -62 209 -76 33 -8 65 -19 71 -24 7 -6 50 -19
96 -31 46 -11 103 -27 125 -34 23 -8 88 -19 144 -25 56 -5 127 -18 158 -27 50
-15 105 -18 427 -18 347 0 375 1 455 22 47 12 119 24 160 28 41 4 107 17 145
30 39 12 92 26 120 30 27 4 61 13 76 20 14 8 52 20 85 28 61 15 132 42 220 83
28 13 55 24 60 24 9 0 242 117 315 159 96 54 125 72 169 106 25 19 61 44 80
55 34 20 59 38 177 130 132 102 458 429 498 498 5 10 37 53 70 96 33 43 66 87
74 99 8 12 26 40 41 62 15 22 30 47 34 55 3 8 22 40 41 70 19 30 46 78 60 105
14 28 29 57 34 65 21 33 121 251 121 264 0 7 11 33 23 57 13 24 29 68 36 97 7
28 17 54 21 57 5 3 16 40 26 83 9 42 23 89 30 104 8 14 21 69 29 121 8 52 22
116 30 143 17 55 38 515 26 562 l-7 27 -152 3 -152 3 -10 -26 c-6 -15 -10 -70
-10 -123 0 -53 -7 -126 -15 -162 -8 -36 -22 -116 -30 -179 -9 -63 -20 -122
-25 -131 -5 -8 -15 -53 -24 -98 -9 -46 -20 -91 -25 -100 -5 -10 -17 -47 -26
-82 -29 -113 -86 -253 -183 -448 -110 -219 -171 -313 -334 -515 -86 -106 -232
-257 -328 -339 -52 -45 -102 -88 -110 -97 -36 -39 -338 -241 -360 -241 -4 0
-18 -8 -31 -19 -13 -10 -62 -37 -109 -61 -47 -23 -93 -46 -103 -51 -10 -5 -48
-21 -85 -35 -37 -14 -96 -37 -132 -51 -121 -47 -266 -90 -362 -108 -43 -7 -86
-19 -97 -25 -11 -6 -80 -15 -153 -20 -73 -5 -184 -15 -247 -21 -63 -7 -151 -9
-195 -5 -45 3 -160 13 -256 20 -96 8 -188 20 -205 27 -16 6 -73 20 -125 29
-52 10 -115 25 -140 34 -77 27 -173 56 -215 66 -22 6 -58 19 -80 29 -22 11
-67 31 -100 46 -248 111 -420 216 -643 393 -226 180 -446 422 -603 662 -85
130 -120 189 -156 265 -14 29 -23 47 -43 83 -5 9 -23 51 -40 92 -17 41 -41 98
-54 125 -13 28 -29 72 -35 99 -7 27 -18 61 -25 75 -8 14 -17 46 -21 71 -4 25
-16 68 -26 95 -10 28 -23 87 -29 133 -6 45 -18 101 -27 125 -14 36 -16 97 -17
437 0 351 2 400 17 440 10 24 24 89 32 143 9 54 20 107 25 118 6 10 15 45 21
76 5 32 21 88 34 126 68 183 80 217 107 282 16 39 33 77 39 85 5 8 21 38 35
65 85 167 203 349 312 484 100 122 169 199 229 252 26 24 85 77 129 119 127
118 240 200 437 319 89 54 315 171 330 171 5 0 32 11 60 24 29 13 72 31 97 39
25 8 65 22 90 30 134 45 245 74 420 107 44 9 259 27 430 38 77 4 195 -3 460
-29 52 -5 115 -16 140 -25 25 -9 70 -17 100 -18 l55 -1 0 180 0 180 -90 12
c-49 7 -119 19 -155 29 -53 13 -127 17 -400 19 -184 2 -366 0 -405 -5z"></path>
<path d="M5594 6511 c-11 -5 -32 -25 -47 -44 l-27 -36 1 -2313 c0 -1272 4
-2333 7 -2358 5 -31 12 -46 25 -48 9 -2 17 3 17 10 0 13 122 147 296 325 45
46 85 95 89 110 3 15 26 49 51 75 l44 47 0 2110 c0 1677 -3 2111 -12 2118 -18
11 -418 15 -444 4z"></path>
<path d="M4670 5878 c-13 -20 -15 -295 -18 -2288 -3 -2321 -3 -2363 34 -2377
8 -3 45 9 82 27 209 100 297 147 330 176 l37 32 2 2208 c2 1384 -1 2215 -7
2224 -8 12 -47 16 -227 18 l-218 3 -15 -23z"></path>
<path d="M3797 5229 c-16 -6 -30 -21 -35 -37 -4 -15 -7 -948 -7 -2073 0 -1719
2 -2049 14 -2062 16 -20 93 -22 274 -7 114 10 160 23 185 53 10 11 12 491 12
2058 0 1819 -2 2045 -15 2059 -13 12 -51 15 -208 17 -116 1 -203 -2 -220 -8z"></path>
<path d="M2925 4453 c-20 -28 -20 -44 -20 -1674 0 -1786 -4 -1669 53 -1690 24
-9 270 -31 360 -31 29 -1 57 3 63 9 6 6 9 641 9 1693 0 1505 -1 1686 -15 1700
-13 12 -52 15 -223 18 l-207 3 -20 -28z"></path>
<path d="M2031 3641 c-13 -13 -21 -34 -21 -53 -1 -57 -1 -1980 0 -2039 0 -80
25 -111 132 -168 47 -25 115 -62 150 -82 94 -53 151 -67 186 -45 18 11 18
2381 0 2393 -7 4 -106 9 -220 11 -198 3 -207 3 -227 -17z"></path>
<path d="M1223 2843 c-60 -8 -63 -20 -63 -295 0 -143 4 -258 10 -273 6 -15 42
-62 81 -104 39 -42 111 -129 161 -194 82 -108 96 -121 154 -149 36 -17 67 -28
70 -26 9 10 4 1022 -5 1031 -10 10 -353 18 -408 10z"></path>
</g>
</svg>